<svg xmlns="http://www.w3.org/2000/svg" xmlns:xlink="http://www.w3.org/1999/xlink" width="200" zoomAndPan="magnify" viewBox="0 0 150 149.999998" height="200" preserveAspectRatio="xMidYMid meet" version="1.0"><path fill="#ff66c4" d="M 124.503906 49.503906 C 124.503906 35.84375 118.957031 23.445312 110.003906 14.5 C 101.054688 5.546875 88.65625 -0.00390625 75 0 C 61.34375 -0.00390625 48.941406 5.546875 39.996094 14.5 C 31.042969 23.445312 25.496094 35.84375 25.496094 49.503906 C 25.496094 58.640625 27.992188 67.21875 32.324219 74.5625 C 32.324219 74.566406 32.328125 74.566406 32.328125 74.566406 C 32.339844 74.59375 32.355469 74.621094 32.367188 74.644531 L 32.375 74.644531 C 35.410156 80.046875 39.785156 85.394531 43.332031 90.5 C 45.113281 93.050781 46.683594 95.53125 47.765625 97.792969 C 48.859375 100.0625 49.4375 102.085938 49.464844 103.714844 L 49.464844 131.144531 C 49.464844 139.609375 56.320312 146.464844 64.785156 146.464844 L 67.878906 146.464844 C 69.53125 148.601562 72.09375 150 75 150 C 77.90625 150 80.46875 148.601562 82.121094 146.464844 L 85.214844 146.464844 C 93.679688 146.464844 100.535156 139.609375 100.535156 131.144531 L 100.535156 100.105469 L 56.054688 100.105469 C 55.632812 98.269531 54.976562 96.480469 54.144531 94.734375 C 52.105469 90.507812 49.15625 86.421875 46.238281 82.429688 C 43.316406 78.453125 40.421875 74.578125 38.5 71.121094 L 38.46875 71.0625 L 38.453125 71.039062 C 34.714844 64.726562 32.570312 57.382812 32.570312 49.503906 C 32.570312 37.773438 37.3125 27.1875 44.996094 19.5 C 52.6875 11.8125 63.269531 7.074219 75 7.070312 C 86.730469 7.074219 97.3125 11.8125 105.003906 19.5 C 112.6875 27.1875 117.429688 37.773438 117.429688 49.503906 C 117.429688 57.382812 115.285156 64.726562 111.542969 71.039062 L 111.519531 71.085938 L 111.492188 71.128906 C 108.597656 76.351562 104.761719 80.042969 100.558594 82.464844 C 96.355469 84.878906 91.769531 86.015625 87.457031 86.015625 C 82.429688 86.019531 77.824219 84.464844 74.617188 81.8125 C 73.003906 80.488281 71.726562 78.894531 70.832031 77.03125 C 69.941406 75.167969 69.425781 73.019531 69.425781 70.496094 C 69.425781 70.238281 69.476562 69.945312 69.488281 69.679688 C 74.914062 64.820312 89.835938 65.179688 92.878906 49.113281 C 94.808594 38.886719 89.457031 30.46875 88.558594 24.359375 C 61.054688 22.003906 48.484375 46.753906 61.65625 66.378906 C 62.003906 66.890625 62.285156 67.296875 62.523438 67.664062 C 62.425781 68.621094 62.351562 69.570312 62.351562 70.496094 C 62.351562 74.003906 63.09375 77.25 64.453125 80.085938 C 66.492188 84.351562 69.882812 87.640625 73.910156 89.8125 C 77.941406 91.984375 82.617188 93.085938 87.457031 93.085938 C 93 93.085938 98.78125 91.636719 104.082031 88.589844 C 109.359375 85.5625 114.132812 80.925781 117.628906 74.644531 C 117.632812 74.640625 117.632812 74.636719 117.636719 74.632812 C 117.652344 74.605469 117.667969 74.582031 117.683594 74.554688 L 117.679688 74.554688 C 122.011719 67.210938 124.503906 58.636719 124.503906 49.503906 Z M 56.535156 107.179688 L 93.464844 107.179688 L 93.464844 118.1875 L 56.535156 110.335938 Z M 56.535156 115.152344 L 93.464844 123.007812 L 93.464844 131.144531 C 93.464844 131.648438 93.402344 132.136719 93.316406 132.613281 L 56.535156 124.792969 Z M 56.535156 129.617188 L 91.066406 136.957031 C 91.058594 136.964844 91.054688 136.972656 91.046875 136.976562 C 89.542969 138.476562 87.503906 139.390625 85.214844 139.394531 L 64.785156 139.394531 C 62.496094 139.390625 60.457031 138.476562 58.953125 136.976562 C 57.453125 135.472656 56.539062 133.433594 56.535156 131.144531 Z M 66.949219 58.527344 C 66.949219 56.625 66.949219 53.453125 70.4375 44.25 C 73.925781 35.046875 82.808594 29.023438 83.445312 30.289062 C 72.34375 43.617188 70.035156 58.875 69.800781 59.796875 C 69.484375 61.066406 66.949219 60.433594 66.949219 58.527344 Z M 66.949219 58.527344 " fill-opacity="1" fill-rule="nonzero"/></svg>